<svg width="36" height="29" viewBox="0 0 36 29" fill="none" xmlns="http://www.w3.org/2000/svg">
<g clip-path="url(#clip0_658_154)">
<path d="M9.07011 0.382812L0.386719 6.02123L9.07011 11.6596L17.7535 6.02123L9.07011 0.382812Z" fill="#82FF83"/>
<path d="M0.386719 6.02344V11.6619L9.07011 17.3003V11.6619L0.386719 6.02344Z" fill="#F3F3F3"/>
<path d="M17.7498 6.02344V11.6619L9.06641 17.3003V11.6619L17.7498 6.02344Z" fill="#CFCCCF"/>
<path d="M9.07011 0.382812L0.386719 6.02123L9.07011 11.6596L17.7535 6.02123L9.07011 0.382812Z" fill="#82FF83"/>
<path d="M0.386719 6.02344V11.6619L9.07011 17.3003V11.6619L0.386719 6.02344Z" fill="#F3F3F3"/>
<path d="M17.7498 6.02344V11.6619L9.06641 17.3003V11.6619L17.7498 6.02344Z" fill="#CFCCCF"/>
<path d="M9.06932 17.6828C8.996 17.6828 8.92267 17.6635 8.86092 17.6211L0.177527 11.9826C0.0694671 11.9132 0 11.7897 0 11.6585V6.02005C0 5.87725 0.0771857 5.7499 0.200683 5.68043C0.32418 5.61096 0.478551 5.61868 0.59433 5.69587L9.27772 11.3343C9.38578 11.4038 9.45525 11.5272 9.45525 11.6585V17.2969C9.45525 17.4397 9.37807 17.567 9.25457 17.6365C9.19668 17.6674 9.13493 17.6828 9.06932 17.6828ZM0.771857 11.4501L8.68339 16.5868V11.8707L0.771857 6.73016V11.4501Z" fill="#231F20"/>
<path d="M9.06562 17.6852C9.00387 17.6852 8.93826 17.6697 8.88037 17.6389C8.75687 17.5733 8.67969 17.442 8.67969 17.2992V11.6608C8.67969 11.5296 8.7453 11.41 8.85721 11.3366L17.5406 5.69823C17.6602 5.62104 17.8108 5.61718 17.9343 5.68279C18.0578 5.7484 18.1349 5.87962 18.1349 6.02241V11.6608C18.1349 11.792 18.0693 11.9117 17.9574 11.985L9.27402 17.6234C9.20841 17.6659 9.13508 17.6852 9.06562 17.6852ZM9.45154 11.8731V16.5891L17.3631 11.4524V6.73252L9.45154 11.8692V11.8731Z" fill="#231F20"/>
<path d="M9.06932 12.0458C8.99599 12.0458 8.92267 12.0265 8.86092 11.984L0.177527 6.34561C0.0694671 6.27614 0 6.15264 0 6.02143C0 5.89021 0.0656079 5.77057 0.177527 5.69725L8.86092 0.0588306C8.98828 -0.0222144 9.15422 -0.0222144 9.28158 0.0588306L17.965 5.69725C18.073 5.76671 18.1425 5.89021 18.1425 6.02143C18.1425 6.15264 18.0769 6.27228 17.965 6.34561L9.28158 11.984C9.21597 12.0265 9.14265 12.0458 9.07318 12.0458H9.06932ZM1.09604 6.02143L9.06932 11.2006L17.0426 6.02143L9.06932 0.842266L1.09604 6.02143Z" fill="#231F20"/>
<path d="M26.4373 0.382812L17.7539 6.02123L26.4373 11.6596L35.1207 6.02123L26.4373 0.382812Z" fill="#82FF83"/>
<path d="M17.7539 6.02344V11.6619L26.4373 17.3003V11.6619L17.7539 6.02344Z" fill="#F3F3F3"/>
<path d="M35.117 6.02344V11.6619L26.4336 17.3003V11.6619L35.117 6.02344Z" fill="#CFCCCF"/>
<path d="M26.4373 0.382812L17.7539 6.02123L26.4373 11.6596L35.1207 6.02123L26.4373 0.382812Z" fill="#0B65FA"/>
<path d="M17.7539 6.02344V11.6619L26.4373 17.3003V11.6619L17.7539 6.02344Z" fill="#F3F3F3"/>
<path d="M35.117 6.02344V11.6619L26.4336 17.3003V11.6619L35.117 6.02344Z" fill="#CFCCCF"/>
<path d="M26.4365 17.6852C26.3632 17.6852 26.2899 17.6659 26.2281 17.6234L17.5447 11.985C17.4367 11.9155 17.3672 11.792 17.3672 11.6608V6.02241C17.3672 5.87962 17.4444 5.75226 17.5679 5.68279C17.6914 5.61718 17.8419 5.62104 17.9615 5.69823L26.6449 11.3366C26.753 11.4061 26.8224 11.5296 26.8224 11.6608V17.2992C26.8224 17.442 26.7453 17.5694 26.6218 17.6389C26.5639 17.6697 26.5021 17.6852 26.4365 17.6852ZM18.139 11.4524L26.0506 16.5891V11.8731L18.139 6.73638V11.4563V11.4524Z" fill="#231F20"/>
<path d="M26.4406 17.6852C26.3789 17.6852 26.3133 17.6697 26.2554 17.6389C26.1319 17.5733 26.0547 17.442 26.0547 17.2992V11.6608C26.0547 11.5296 26.1203 11.41 26.2322 11.3366L34.9156 5.69823C35.0352 5.62104 35.1858 5.61718 35.3093 5.68279C35.4328 5.7484 35.5099 5.87962 35.5099 6.02241V11.6608C35.5099 11.792 35.4443 11.9117 35.3324 11.985L26.649 17.6234C26.5834 17.6659 26.5101 17.6852 26.4406 17.6852ZM26.8265 11.8731V16.5891L34.7381 11.4524V6.73252L26.8265 11.8692V11.8731Z" fill="#231F20"/>
<path d="M26.4365 12.0458C26.3632 12.0458 26.2899 12.0265 26.2281 11.984L17.5447 6.34561C17.4367 6.27614 17.3672 6.15264 17.3672 6.02143C17.3672 5.89021 17.4328 5.77057 17.5447 5.69725L26.2281 0.0588306C26.3555 -0.0222144 26.5214 -0.0222144 26.6488 0.0588306L35.3322 5.69725C35.4402 5.76671 35.5097 5.89021 35.5097 6.02143C35.5097 6.15264 35.4441 6.27228 35.3322 6.34561L26.6488 11.984C26.5832 12.0265 26.5098 12.0458 26.4404 12.0458H26.4365ZM18.4632 6.02143L26.4365 11.2006L34.4098 6.02143L26.4365 0.842266L18.4632 6.02143Z" fill="#231F20"/>
<path d="M17.7498 6.02344L9.06641 11.6619L17.7498 17.3003L26.4332 11.6619L17.7498 6.02344Z" fill="#82FF83"/>
<path d="M9.06641 11.6641V17.3025L17.7498 22.9409V17.3025L9.06641 11.6641Z" fill="#F3F3F3"/>
<path d="M26.4295 11.6641V17.3025L17.7461 22.9409V17.3025L26.4295 11.6641Z" fill="#CFCCCF"/>
<path d="M17.7498 6.02344L9.06641 11.6619L17.7498 17.3003L26.4332 11.6619L17.7498 6.02344Z" fill="#82FF83"/>
<path d="M9.06641 11.6641V17.3025L17.7498 22.9409V17.3025L9.06641 11.6641Z" fill="#F3F3F3"/>
<path d="M26.4295 11.6641V17.3025L17.7461 22.9409V17.3025L26.4295 11.6641Z" fill="#CFCCCF"/>
<path d="M17.749 23.3234C17.6757 23.3234 17.6024 23.3041 17.5406 23.2617L8.85721 17.6233C8.74915 17.5538 8.67969 17.4303 8.67969 17.2991V11.6607C8.67969 11.5179 8.75687 11.3905 8.88037 11.3211C9.00387 11.2516 9.15438 11.2593 9.27402 11.3365L17.9574 16.9749C18.0655 17.0444 18.1349 17.1679 18.1349 17.2991V22.9375C18.1349 23.0803 18.0578 23.2077 17.9343 23.2771C17.8764 23.308 17.8146 23.3234 17.749 23.3234ZM9.45154 17.0907L17.3631 22.2274V17.5114L9.45154 12.3746V17.0945V17.0907Z" fill="#231F20"/>
<path d="M17.7453 23.3258C17.6836 23.3258 17.6179 23.3104 17.5601 23.2795C17.4366 23.2139 17.3594 23.0827 17.3594 22.9399V17.3015C17.3594 17.1702 17.425 17.0506 17.5369 16.9773L26.2203 11.3389C26.3399 11.2617 26.4904 11.2578 26.6139 11.3234C26.7374 11.389 26.8146 11.5202 26.8146 11.663V17.3015C26.8146 17.4327 26.749 17.5523 26.6371 17.6256L17.9537 23.264C17.8881 23.3065 17.8148 23.3258 17.7453 23.3258ZM18.1312 17.5137V22.2298L26.0428 17.093V12.3731L18.1312 17.5099V17.5137Z" fill="#231F20"/>
<path d="M17.749 17.6864C17.6757 17.6864 17.6024 17.6671 17.5406 17.6246L8.85721 11.9862C8.74915 11.9168 8.67969 11.7933 8.67969 11.6621C8.67969 11.5308 8.7453 11.4112 8.85721 11.3379L17.5406 5.69946C17.668 5.61841 17.8339 5.61841 17.9613 5.69946L26.6447 11.3379C26.7527 11.4073 26.8222 11.5308 26.8222 11.6621C26.8222 11.7933 26.7566 11.9129 26.6447 11.9862L17.9613 17.6246C17.8957 17.6671 17.8223 17.6864 17.7529 17.6864H17.749ZM9.77572 11.6621L17.749 16.8412L25.7223 11.6621L17.749 6.48289L9.77572 11.6621Z" fill="#231F20"/>
<path d="M9.07011 11.6641L0.386719 17.3025L9.07011 22.9409L17.7535 17.3025L9.07011 11.6641Z" fill="#82FF83"/>
<path d="M0.386719 17.3008V22.9392L9.07011 28.5776V22.9392L0.386719 17.3008Z" fill="#F3F3F3"/>
<path d="M17.7498 17.3008V22.9392L9.06641 28.5776V22.9392L17.7498 17.3008Z" fill="#CFCCCF"/>
<path d="M9.07011 11.6621L0.386719 17.3005L9.07011 22.9389L17.7535 17.3005L9.07011 11.6621Z" fill="#0B65FA"/>
<path d="M0.386719 17.3008V22.9392L9.07011 28.5776V22.9392L0.386719 17.3008Z" fill="#F3F3F3"/>
<path d="M17.7498 17.3008V22.9392L9.06641 28.5776V22.9392L17.7498 17.3008Z" fill="#CFCCCF"/>
<path d="M9.06932 28.9621C8.996 28.9621 8.92267 28.9428 8.86092 28.9004L0.177527 23.2619C0.0694671 23.1925 0 23.069 0 22.9378V17.2993C0 17.1566 0.0771857 17.0292 0.200683 16.9597C0.32418 16.8903 0.478551 16.898 0.59433 16.9752L9.27772 22.6136C9.38578 22.683 9.45525 22.8065 9.45525 22.9378V28.5762C9.45525 28.719 9.37807 28.8463 9.25457 28.9158C9.19668 28.9467 9.13493 28.9621 9.06932 28.9621ZM0.771857 22.7294L8.68339 27.8661V23.15L0.771857 18.0095V22.7294Z" fill="#231F20"/>
<path d="M9.06562 28.9645C9.00387 28.9645 8.93826 28.949 8.88037 28.9182C8.75687 28.8525 8.67969 28.7213 8.67969 28.5785V22.9401C8.67969 22.8089 8.7453 22.6893 8.85721 22.6159L17.5406 16.9775C17.6602 16.9003 17.8108 16.8965 17.9343 16.9621C18.0578 17.0277 18.1349 17.1589 18.1349 17.3017V22.9401C18.1349 23.0713 18.0693 23.191 17.9574 23.2643L9.27402 28.9027C9.20841 28.9452 9.13508 28.9645 9.06562 28.9645ZM9.45154 23.1524V27.8684L17.3631 22.7317V18.0118L9.45154 23.1485V23.1524Z" fill="#231F20"/>
<path d="M9.06932 23.3251C8.99599 23.3251 8.92267 23.3058 8.86092 23.2633L0.177527 17.6249C0.0694671 17.5554 0 17.4319 0 17.3007C0 17.1695 0.0656079 17.0499 0.177527 16.9765L8.86092 11.3381C8.98828 11.2571 9.15422 11.2571 9.28158 11.3381L17.965 16.9765C18.073 17.046 18.1425 17.1695 18.1425 17.3007C18.1425 17.4319 18.0769 17.5516 17.965 17.6249L9.28158 23.2633C9.21597 23.3058 9.14265 23.3251 9.07318 23.3251H9.06932ZM1.09604 17.3007L9.06932 22.4799L17.0426 17.3007L9.06932 12.1216L1.09604 17.3007Z" fill="#231F20"/>
<path d="M26.4432 11.6641L17.7598 17.3025L26.4432 22.9409L35.1266 17.3025L26.4432 11.6641Z" fill="#82FF83"/>
<path d="M17.7598 17.3008V22.9392L26.4432 28.5776V22.9392L17.7598 17.3008Z" fill="#F3F3F3"/>
<path d="M35.117 17.3008V22.9392L26.4336 28.5776V22.9392L35.117 17.3008Z" fill="#CFCCCF"/>
<path d="M26.4432 11.6602L17.7598 17.2986L26.4432 22.937L35.1266 17.2986L26.4432 11.6602Z" fill="#82FF83"/>
<path d="M17.7598 17.3008V22.9392L26.4432 28.5776V22.9392L17.7598 17.3008Z" fill="#F3F3F3"/>
<path d="M35.117 17.3008V22.9392L26.4336 28.5776V22.9392L35.117 17.3008Z" fill="#CFCCCF"/>
<path d="M26.4365 28.9645C26.3632 28.9645 26.2899 28.9452 26.2281 28.9027L17.5447 23.2643C17.4367 23.1948 17.3672 23.0713 17.3672 22.9401V17.3017C17.3672 17.1589 17.4444 17.0316 17.5679 16.9621C17.6914 16.8965 17.8419 16.9003 17.9615 16.9775L26.6449 22.6159C26.753 22.6854 26.8224 22.8089 26.8224 22.9401V28.5785C26.8224 28.7213 26.7453 28.8487 26.6218 28.9182C26.5639 28.949 26.5021 28.9645 26.4365 28.9645ZM18.139 22.7317L26.0506 27.8684V23.1524L18.139 18.0157V22.7356V22.7317Z" fill="#231F20"/>
<path d="M26.4406 28.9645C26.3789 28.9645 26.3133 28.949 26.2554 28.9182C26.1319 28.8525 26.0547 28.7213 26.0547 28.5785V22.9401C26.0547 22.8089 26.1203 22.6893 26.2322 22.6159L34.9156 16.9775C35.0352 16.9003 35.1858 16.8965 35.3093 16.9621C35.4328 17.0277 35.5099 17.1589 35.5099 17.3017V22.9401C35.5099 23.0713 35.4443 23.191 35.3324 23.2643L26.649 28.9027C26.5834 28.9452 26.5101 28.9645 26.4406 28.9645ZM26.8265 23.1524V27.8684L34.7381 22.7317V18.0118L26.8265 23.1485V23.1524Z" fill="#231F20"/>
<path d="M26.4365 23.3251C26.3632 23.3251 26.2899 23.3058 26.2281 23.2633L17.5447 17.6249C17.4367 17.5554 17.3672 17.4319 17.3672 17.3007C17.3672 17.1695 17.4328 17.0499 17.5447 16.9765L26.2281 11.3381C26.3555 11.2571 26.5214 11.2571 26.6488 11.3381L35.3322 16.9765C35.4402 17.046 35.5097 17.1695 35.5097 17.3007C35.5097 17.4319 35.4441 17.5516 35.3322 17.6249L26.6488 23.2633C26.5832 23.3058 26.5098 23.3251 26.4404 23.3251H26.4365ZM18.4632 17.3007L26.4365 22.4799L34.4098 17.3007L26.4365 12.1216L18.4632 17.3007Z" fill="#231F20"/>
</g>
<defs>
<clipPath id="clip0_658_154">
<rect width="35.5054" height="28.9639" fill="white"/>
</clipPath>
</defs>
</svg>
